<svg width="42" height="30" viewBox="0 0 42 30" fill="none" xmlns="http://www.w3.org/2000/svg">
<path fill-rule="evenodd" clip-rule="evenodd" d="M16.8125 21.51C16.8125 17.469 16.8125 12.7887 16.8125 8.84813L27.8372 14.9169C27.5487 15.0923 16.9784 21.4132 16.8143 21.51H16.8125ZM5.38206 1.0146C2.94596 1.42381 1.26178 2.85972 0.764101 5.38442C-0.119461 9.8529 -0.525179 21.6818 1.16982 26.0096C2.12551 28.4466 4.24784 29.1244 6.74346 29.4112C14.2393 30.0232 29.1499 30.4488 36.6872 29.1609C39.1756 28.7992 40.7209 27.25 41.1916 24.749C42.1256 19.769 42.3276 11.1956 41.3863 6.05305C40.7534 2.89991 39.0205 1.46217 36.4726 0.910466C30.3598 -0.346408 12.1945 -0.293429 5.38567 1.01642L5.38206 1.0146Z" fill="#464753"/>
</svg>
