<svg width="39" height="38" viewBox="0 0 39 38" fill="none" xmlns="http://www.w3.org/2000/svg">
<path fill-rule="evenodd" clip-rule="evenodd" d="M13.8836 37.9982L21.6837 37.9946L21.6339 26.1661C21.6302 22.277 22.157 19.1346 26.3379 19.0018C30.6293 18.8654 31.0382 22.3955 31.0382 26.1661L30.9996 37.9982L38.853 37.9946C38.7849 32.6107 39.0206 27.0975 38.9985 21.6956C38.9691 14.3949 33.8488 10.7446 26.3287 12.0816C24.253 12.471 22.4775 13.8224 21.6413 14.849L21.6266 11.8788L13.8375 11.9003L13.8854 37.9982H13.8836ZM8.8186 37.9928L8.87753 11.8788H0.78277C0.788296 20.4914 0.788301 29.4772 0.788301 38L8.82044 37.9928H8.8186ZM4.79793 9.32143C7.4483 9.32143 9.59584 7.23066 9.59584 4.66072C9.59584 2.09077 7.4483 0 4.79793 0C2.14756 0 0 2.09077 0 4.66072C0 7.23066 2.14756 9.32143 4.79793 9.32143Z" fill="#464753"/>
</svg>
