<svg width="44" height="44" viewBox="0 0 44 44" fill="none" xmlns="http://www.w3.org/2000/svg">
<path fill-rule="evenodd" clip-rule="evenodd" d="M3.98389 12.223C4.36157 7.83724 7.55469 4.27554 12.479 3.92135C14.6132 3.9069 28.8205 3.90871 31.8311 3.90871C36.2097 4.0623 39.9539 8.01795 40.0714 12.2699C40.1563 15.2064 40.0461 28.9653 40.0371 32.068C39.9521 35.2358 36.759 39.345 32.281 39.992C29.7511 40.048 12.8169 40.1636 11.4761 39.9685C5.45667 38.4307 4.17906 34.1371 3.99654 31.8548C3.81403 30.6676 3.95679 14.7763 3.98389 12.2212V12.223ZM0.0137257 32.3499C0.254068 38.5246 5.8217 43.8211 12.2983 44L32.4961 43.9639C38.857 43.6386 43.9765 37.603 43.9928 31.9506L44 12.1037C43.8789 5.55313 38.0366 0.256649 32.8828 0.0560664L11.8176 4.77446e-05C6.36925 -0.0180228 0.528745 5.09594 0.0878162 11.1207C-0.0386798 14.789 0.00649732 28.6599 0.0137257 32.3499ZM14.6909 21.9973C14.7505 17.8971 17.996 14.6426 22.1614 14.6968C26.1695 14.7492 29.4078 18.1537 29.3283 22.1726C29.2524 26.0903 26.0954 29.2562 22.1559 29.334C18.0737 29.4153 14.633 26.0903 14.6909 21.9955V21.9973ZM10.7243 21.9919C10.7189 28.275 15.8402 33.3908 22.1596 33.2824C28.3217 33.1758 33.2641 28.2804 33.284 22.0786C33.3021 15.9383 28.2729 10.8532 22.1686 10.743C15.8619 10.7611 10.7514 15.7847 10.7243 21.9937V21.9919ZM31.1064 10.3978C31.1787 11.8055 32.2937 12.9458 33.7321 12.9331C35.2031 12.9205 36.347 11.8001 36.3813 10.3852C36.4157 8.91786 35.2519 7.63666 33.752 7.65834C32.2901 7.68364 31.0305 8.90521 31.1064 10.3978Z" fill="#464753"/>
</svg>
