<svg width="24" height="44" viewBox="0 0 24 44" fill="none" xmlns="http://www.w3.org/2000/svg">
<path fill-rule="evenodd" clip-rule="evenodd" d="M24 7.28136C14.1798 6.70315 16.0175 10.4634 15.9181 16.6051C17.9694 16.6087 22.5103 16.6178 23.7404 16.6196C23.2487 19.7275 22.5674 23.972 22.4588 24.6532C20.1239 24.6622 18.0689 24.646 16.0452 24.6532C16.0544 28.5363 15.9181 41.7811 15.8831 44H7.18804C7.18804 40.8794 7.19725 27.8966 7.1954 24.6568C5.45528 24.655 2.25862 24.6622 0.0194774 24.6351C0.0194774 23.036 -0.0173483 19.3824 0.0102727 16.6105C1.28084 16.5798 5.71308 16.6521 7.18436 16.6033C7.18436 14.8217 7.20093 13.1232 7.1954 10.8627C7.17331 2.88691 12.4968 -1.68282 23.9963 0.57765C23.9963 2.46047 24 5.89003 24 7.27956V7.28136Z" fill="#464753"/>
</svg>
