<svg width="80" height="80" viewBox="0 0 80 80" fill="none" xmlns="http://www.w3.org/2000/svg">
<path d="M10.9166 50.9862C8.08354 47.3056 6.66699 45.4652 6.66699 40.0007C6.66699 34.5361 8.08354 32.6957 10.9166 29.0151C16.5735 21.6658 26.0607 13.334 40.0003 13.334C53.9399 13.334 63.4271 21.6658 69.084 29.0151C71.9171 32.6957 73.3337 34.5361 73.3337 40.0007C73.3337 45.4652 71.9171 47.3056 69.084 50.9862C63.4271 58.3355 53.9399 66.6673 40.0003 66.6673C26.0607 66.6673 16.5735 58.3355 10.9166 50.9862Z" stroke="#464753" stroke-width="4"/>
<path d="M50 40C50 45.5228 45.5228 50 40 50C34.4772 50 30 45.5228 30 40C30 34.4772 34.4772 30 40 30C45.5228 30 50 34.4772 50 40Z" stroke="#464753" stroke-width="4"/>
</svg>
