<svg width="39" height="32" viewBox="0 0 39 32" fill="none" xmlns="http://www.w3.org/2000/svg">
<path fill-rule="evenodd" clip-rule="evenodd" d="M32.0469 1.44762C24.5102 4.52562 12.3875 9.6198 2.75486 13.7123C1.7787 14.1312 -0.836657 15.3496 0.266583 16.6027C0.879903 17.3002 3.30187 17.9632 4.50273 18.3056C5.99827 18.7318 7.71851 19.2909 9.37613 19.3583C11.229 19.4348 12.5901 18.5515 13.7228 17.7811C16.5979 15.8268 19.6571 13.7378 22.58 11.84C23.3038 11.3755 26.5086 9.07887 28.1846 8.30482C29.0392 7.82946 29.9877 8.1409 29.2658 9.06795C27.063 11.3774 21.6407 16.1565 18.6552 19.1652C17.6532 20.1742 16.2 21.4929 17.4506 22.9117C18.226 23.7914 19.8136 24.6182 20.9077 25.385L26.1715 28.9875C27.5805 29.9401 30.4537 31.9617 32.0966 32C33.4135 32.0073 34.2589 30.8161 34.7636 28.8946C35.6826 23.622 37.2113 15.0218 38.2961 8.66908C38.5337 7.08091 39.6885 1.41848 38.403 0.365764C37.075 -0.721553 33.454 0.910333 32.0487 1.44397L32.0469 1.44762Z" fill="#464753"/>
</svg>
