<svg width="34" height="40" viewBox="0 0 34 40" fill="none" xmlns="http://www.w3.org/2000/svg">
<path fill-rule="evenodd" clip-rule="evenodd" d="M6.71802 23.2352C6.73108 23.1956 7.30976 20.3943 7.40869 19.8725C5.18746 17.7405 4.47065 16.3084 5.04183 13.2425C5.56821 10.4142 7.17349 8.30379 9.45259 6.58377C13.2455 3.72127 18.9815 2.85946 23.2466 5.15702C26.0596 6.67193 27.3606 8.83455 27.7619 11.8968C28.2733 15.8118 27.1441 20.3601 24.3871 23.1848C22.8099 24.599 21.3147 25.3439 19.0524 25.0668C17.6693 24.8977 16.6502 24.3831 16.135 23.4925C15.0953 21.6879 16.568 18.2101 17.1597 16.4955C17.533 15.4124 17.9343 14.2357 18.1098 13.0338C18.4196 10.9054 17.6002 9.28974 15.2222 8.97309C13.4284 8.7338 12.3588 9.44807 11.2445 10.7003C9.81282 12.3088 9.20619 15.7002 10.1395 18.0248C10.5949 19.1583 10.7125 18.5663 10.4288 19.6782C9.03261 25.1226 7.02041 30.2196 6.95321 35.95C6.94574 36.6175 7.0223 39.5772 7.26309 40C8.98408 39.2497 11.0018 36.0346 11.7279 34.3326C12.637 32.2023 13.5236 28.926 13.9473 26.5655C14.595 26.6914 16.5774 28.5662 18.7949 28.9602C24.9565 30.0523 30.0373 26.4054 32.4209 21.2201C35.092 15.4106 34.6365 7.67948 29.0218 3.62412C26.5598 1.73857 23.7338 0.569105 20.4561 0.164289C12.7284 -0.789278 4.24669 2.41687 1.0567 9.55602C-0.486967 13.0105 -0.585916 18.3055 2.43608 21.1626C3.42537 22.0981 5.43194 23.1345 6.71615 23.2352H6.71802Z" fill="#464753"/>
</svg>
